# xmcd CD database file
#
# Track frame offsets:
#	150
#	16575
#	31875
#	50175
#	65775
#	80250
#	96975
#	118350
#	132675
#
# Disc length: 1930 seconds
#
# Revision: 0
# Processed by: cddbd v1.5.2PL0 Copyright (c) Steve Scherf et al.
# Submitted via: CDex 1.51
#
DISCID=80078809
DTITLE=Plava Trava Zaborava - Muddy river blues
DYEAR=1994
DGENRE=Country
TTITLE0=Muddy river blues
TTITLE1=If you've got love
TTITLE2=Love light shine on you
TTITLE3=(Tonight we just might) fall in love again
TTITLE4=High school heart
TTITLE5=Mercury blues
TTITLE6=Turn back the wheels of this tain
TTITLE7=It's all over now
TTITLE8=Crazy - lead vocal Vanna
EXTD=YEAR: 1994
EXTT0=
EXTT1=
EXTT2=
EXTT3=
EXTT4=
EXTT5=
EXTT6=
EXTT7=
EXTT8=
PLAYORDER=
